<svg aria-hidden="true" style="position: absolute; width: 0; height: 0; overflow: hidden;" version="1.1" xmlns="http://www.w3.org/2000/svg" xmlns:xlink="http://www.w3.org/1999/xlink">
<defs>
<symbol id="icon-logo" viewBox="0 0 26 32">
<path d="M11.442 1.6c1.054-1.010 1.735-1.6 1.735-1.6 0.239 0.726 0.514 1.416 0.815 2.076 1.783 3.892 4.552 6.7 7.021 9.2 2.877 2.916 5.341 5.414 5.341 8.724 0 3.183-1.388 6.235-3.859 8.485s-5.823 3.515-9.317 3.515c-3.495 0-6.846-1.264-9.317-3.515s-3.859-5.303-3.859-8.485c0-6.664 7.862-14.966 11.442-18.4zM12.349 3.642c-1.41 1.39-2.751 2.837-4.017 4.338-1.594 1.9-3.154 4.016-4.304 6.14-1.164 2.146-1.832 4.156-1.832 5.88 0 2.652 1.157 5.196 3.216 7.071s4.852 2.929 7.764 2.929 5.705-1.054 7.764-2.929c2.059-1.875 3.216-4.419 3.216-7.071 0-2.402-1.748-4.314-4.79-7.4l-0.066-0.064c-2.282-2.316-5.027-5.096-6.953-8.896v0.002z"></path>
<path d="M5.606 15.552c1.801-3.282 3.771-5.506 4.596-6.26l1.555 1.416c-0.637 0.58-2.477 2.622-4.188 5.74l-1.963-0.896z"></path>
<path d="M11.616 18.556v-2.4h0.314v2.4h-0.314zM10.153 18.556v-2.4h0.314v2.4h-0.314zM10.336 17.449v-0.28h1.411v0.28h-1.411z"></path>
<path d="M12.741 18.556v-0.28h0.732c0.098 0 0.183-0.023 0.255-0.070 0.074-0.049 0.111-0.137 0.111-0.263 0-0.12-0.035-0.203-0.105-0.25s-0.157-0.070-0.261-0.070h-0.732v-0.28h0.614c0.1 0 0.183-0.024 0.248-0.073 0.065-0.051 0.114-0.117 0.147-0.197 0.033-0.082 0.049-0.17 0.049-0.263 0-0.14-0.037-0.237-0.111-0.29-0.074-0.056-0.176-0.083-0.307-0.083h-0.64v-0.28h0.64c0.242 0 0.424 0.054 0.546 0.163 0.124 0.107 0.186 0.27 0.186 0.49 0 0.089-0.014 0.178-0.043 0.267-0.028 0.087-0.072 0.167-0.131 0.24-0.057 0.071-0.127 0.129-0.212 0.173l-0.016-0.067c0.142 0.027 0.25 0.086 0.327 0.177s0.114 0.206 0.114 0.343c0 0.102-0.022 0.2-0.065 0.293s-0.114 0.17-0.212 0.23c-0.098 0.060-0.228 0.090-0.389 0.090h-0.745zM12.558 18.556v-2.4h0.314v2.4h-0.314z"></path>
<path d="M14.648 18.556v-2.4h0.314v2.12h1.006v0.28h-1.32z"></path>
<path d="M16.301 18.556l-0.026-0.027c-0.002-0.009-0.003-0.017-0.003-0.023s0-0.013 0-0.020c0-0.038 0.006-0.073 0.020-0.107 0.015-0.036 0.036-0.074 0.062-0.117l1.163-1.947 0.059 0.12h-1.287v-0.28h1.555l0.026 0.027c0.002 0.007 0.003 0.014 0.003 0.023 0.002 0.007 0.003 0.013 0.003 0.020 0 0.036-0.009 0.072-0.026 0.11-0.015 0.038-0.035 0.076-0.059 0.113l-1.166 1.947-0.059-0.12h1.343v0.28h-1.607z"></path>
<path d="M10.833 24.444v-0.28h0.523c0.161 0 0.294-0.031 0.399-0.093 0.107-0.064 0.191-0.149 0.252-0.253 0.063-0.104 0.108-0.218 0.134-0.34 0.026-0.124 0.039-0.247 0.039-0.367 0-0.26-0.062-0.456-0.186-0.587-0.124-0.133-0.31-0.2-0.559-0.2h-0.601v-0.28h0.601c0.346 0 0.611 0.090 0.794 0.27 0.185 0.178 0.278 0.443 0.278 0.797 0 0.167-0.021 0.33-0.062 0.49-0.039 0.158-0.105 0.3-0.196 0.427-0.089 0.127-0.207 0.228-0.353 0.303s-0.326 0.113-0.539 0.113h-0.523zM10.65 24.444v-2.4h0.314v2.4h-0.314z"></path>
<path d="M12.831 24.444l0.261-1.6c0.022-0.133 0.053-0.251 0.095-0.353 0.044-0.102 0.101-0.189 0.173-0.26s0.164-0.124 0.278-0.16c0.113-0.036 0.252-0.053 0.415-0.053 0.078 0 0.157 0.004 0.235 0.013 0.081 0.007 0.163 0.020 0.248 0.040l0.007 0.040c-0.007 0.044-0.012 0.1-0.016 0.167-0.002 0.067-0.003 0.133-0.003 0.2s0 0.122 0 0.167v1.8h-0.314v-1.973c0-0.044 0-0.086 0-0.123 0.002-0.040 0.007-0.078 0.013-0.113l0.052 0.097c-0.028-0.013-0.063-0.022-0.105-0.027-0.039-0.004-0.083-0.007-0.131-0.007-0.144 0-0.258 0.020-0.343 0.060-0.083 0.040-0.146 0.1-0.19 0.18-0.041 0.080-0.073 0.182-0.095 0.307l-0.261 1.6h-0.32zM13.158 23.711v-0.28h1.183v0.28h-1.183z"></path>
<path d="M14.877 22.044h1.829v0.28h-0.758v2.12h-0.314v-2.12h-0.758v-0.28z"></path>
<path d="M16.733 24.444l0.261-1.6c0.022-0.133 0.053-0.251 0.095-0.353 0.044-0.102 0.101-0.189 0.173-0.26s0.164-0.124 0.278-0.16c0.113-0.036 0.252-0.053 0.415-0.053 0.078 0 0.157 0.004 0.235 0.013 0.081 0.007 0.163 0.020 0.248 0.040l0.006 0.040c-0.006 0.044-0.012 0.1-0.016 0.167-0.002 0.067-0.003 0.133-0.003 0.2s0 0.122 0 0.167v1.8h-0.314v-1.973c0-0.044 0-0.086 0-0.123 0.002-0.040 0.007-0.078 0.013-0.113l0.052 0.097c-0.028-0.013-0.063-0.022-0.105-0.027-0.039-0.004-0.083-0.007-0.131-0.007-0.144 0-0.258 0.020-0.343 0.060-0.083 0.040-0.146 0.1-0.189 0.18-0.041 0.080-0.073 0.182-0.095 0.307l-0.261 1.6h-0.32zM17.060 23.711v-0.28h1.183v0.28h-1.183z"></path>
</symbol>
<symbol id="icon-button" viewBox="0 0 33 32">
<path stroke-linejoin="miter" stroke-linecap="butt" stroke-miterlimit="4" stroke-width="1.7297" d="M3.716 6.498c0.018-1.252 1.319-2.071 2.455-1.546l15.091 6.962c1.361 0.628 1.332 2.572-0.046 3.161l-15.289 6.537c-1.151 0.492-2.427-0.363-2.409-1.615l0.198-13.499z"></path>
</symbol>
</defs>
</svg>
